# Blender v2.83.0 OBJ File: ''
# www.blender.org
o Electronics_Camera_02_網格
v -0.095288 0.112970 0.036215
v 0.095283 0.004986 -0.044556
v -0.095284 0.000000 -0.039504
v -0.095284 0.004985 0.044615
v -0.095288 0.113023 -0.036128
v 0.095283 0.000000 0.039552
v 0.095286 0.112970 0.036215
v 0.095286 0.113023 -0.036128
v -0.095288 0.060410 0.045476
v 0.095286 0.060411 0.045476
v 0.095286 0.060463 -0.045293
v -0.095288 0.060463 -0.045293
v -0.095288 0.129229 0.013871
v 0.095286 0.129229 0.013871
v -0.095284 0.000000 0.009141
v 0.095283 0.000000 -0.009093
v -0.095288 0.044185 0.013810
v 0.095286 0.044185 0.013810
v -0.095288 0.129249 -0.013761
v 0.095286 0.129249 -0.013761
v -0.095284 0.000000 -0.009093
v 0.095283 0.000000 0.009141
v -0.095288 0.044204 -0.013822
v 0.095286 0.044204 -0.013822
v -0.095288 0.086684 0.044735
v 0.095286 0.086749 -0.044686
v 0.095286 0.086684 0.044735
v -0.095288 0.086749 -0.044686
v -0.095291 0.110701 0.032398
v -0.095291 0.110077 -0.032767
v -0.095291 0.063357 0.032851
v -0.095291 0.062733 -0.032313
v -0.095291 0.125138 0.012121
v -0.095291 0.048533 0.012853
v -0.095291 0.124900 -0.012769
v -0.095291 0.048295 -0.012037
v -0.095291 0.087102 0.040315
v -0.095291 0.086332 -0.040231
v 0.095286 0.105182 0.024910
v 0.095286 0.104662 -0.025204
v 0.095286 0.068772 0.025288
v 0.095286 0.068251 -0.024826
v 0.095286 0.116273 0.009307
v 0.095286 0.057360 0.009919
v 0.095286 0.116074 -0.009835
v 0.095286 0.057161 -0.009223
v 0.095286 0.086395 -0.030930
v 0.095286 0.087039 0.031014
v 0.102328 0.105182 0.024910
v 0.102328 0.104662 -0.025204
v 0.102328 0.068772 0.025288
v 0.102328 0.068251 -0.024826
v 0.102328 0.116273 0.009307
v 0.102328 0.057360 0.009919
v 0.102328 0.116074 -0.009835
v 0.102328 0.057161 -0.009223
v 0.102328 0.086395 -0.030930
v 0.102328 0.087039 0.031014
v 0.105909 0.109112 0.030204
v 0.105909 0.108481 -0.030577
v 0.105909 0.064953 0.030662
v 0.105909 0.064321 -0.030119
v 0.105909 0.122564 0.011279
v 0.105909 0.051111 0.012022
v 0.105909 0.122322 -0.011937
v 0.105909 0.050870 -0.011195
v 0.105909 0.086327 -0.037522
v 0.105909 0.087107 0.037606
v 0.109481 0.106610 0.026834
v 0.109481 0.106050 -0.027157
v 0.109481 0.067384 0.027241
v 0.109481 0.066823 -0.026749
v 0.109481 0.118559 0.010024
v 0.109481 0.055089 0.010683
v 0.109481 0.118344 -0.010599
v 0.109481 0.054875 -0.009939
v 0.109481 0.086370 -0.033325
v 0.109481 0.087063 0.033410
v 0.109482 0.100862 0.019093
v 0.109482 0.100464 -0.019298
v 0.109482 0.072970 0.019382
v 0.109482 0.072571 -0.019008
v 0.109482 0.109358 0.007140
v 0.109482 0.064228 0.007609
v 0.109482 0.109206 -0.007524
v 0.109482 0.064075 -0.007055
v 0.109482 0.086471 -0.023684
v 0.109482 0.086963 0.023769
v 0.102294 0.100862 0.019093
v 0.102294 0.100464 -0.019298
v 0.102294 0.072970 0.019382
v 0.102294 0.072571 -0.019008
v 0.102294 0.109358 0.007140
v 0.102294 0.064228 0.007609
v 0.102294 0.109206 -0.007524
v 0.102294 0.064075 -0.007055
v 0.102294 0.086471 -0.023684
v 0.102294 0.086963 0.023769
v -0.097149 0.106984 0.027383
v -0.097149 0.106456 -0.027682
v -0.097149 0.066977 0.027766
v -0.097149 0.066450 -0.027299
v -0.097149 0.119183 0.010249
v -0.097149 0.054451 0.010868
v -0.097149 0.118982 -0.010783
v -0.097149 0.054250 -0.010165
v -0.097149 0.087042 0.034074
v -0.097149 0.086391 -0.033989
v -0.100356 0.123385 -0.012261
v -0.100356 0.109150 -0.031465
v -0.100356 0.086347 -0.038633
v -0.100356 0.063684 -0.031030
v -0.100356 0.049820 -0.011558
v -0.100356 0.050048 0.012345
v -0.100356 0.064284 0.031550
v -0.100356 0.087086 0.038718
v -0.100356 0.109749 0.031114
v -0.100356 0.123614 0.011642
v -0.100356 0.107383 -0.028983
v -0.100356 0.120497 -0.011292
v -0.100356 0.120707 0.010728
v -0.100356 0.107935 0.028667
v -0.100356 0.087057 0.035671
v -0.100356 0.066051 0.029068
v -0.100356 0.052937 0.011376
v -0.100356 0.052726 -0.010644
v -0.100356 0.065499 -0.028582
v -0.100356 0.086376 -0.035587
v 0.095283 0.000000 -0.039504
v -0.095284 0.004986 -0.044556
v -0.095284 0.000000 0.039552
v 0.095283 0.004985 0.044615
v -0.061105 0.086684 0.044735
v -0.061105 0.112970 0.036215
v -0.061105 0.129229 0.013871
v -0.061105 0.129249 -0.013761
v -0.061105 0.113023 -0.036128
v -0.061105 0.086749 -0.044686
v -0.061105 0.060463 -0.045293
v -0.061103 0.004986 -0.044556
v -0.061103 0.000000 -0.039504
v -0.061103 0.000000 -0.009093
v -0.061103 0.000000 0.009141
v -0.061103 0.000000 0.039552
v -0.061103 0.004985 0.044615
v -0.061105 0.060410 0.045476
v 0.084959 0.060411 0.045476
v 0.084959 0.086684 0.044735
v 0.084959 0.112970 0.036215
v 0.084959 0.129229 0.013871
v 0.084959 0.129249 -0.013761
v 0.084959 0.113023 -0.036128
v 0.084959 0.086749 -0.044686
v 0.084959 0.060463 -0.045293
v 0.084956 0.004986 -0.044556
v 0.084956 0.000000 -0.039504
v 0.084956 0.000000 -0.009093
v 0.084956 0.000000 0.009141
v 0.084956 0.000000 0.039552
v 0.084956 0.004985 0.044615
v -0.061105 0.073547 0.045106
v 0.084959 0.073547 0.045106
v -0.061103 0.005100 0.028618
v 0.084956 0.005100 0.028618
v 0.084959 0.060525 0.029479
v 0.084959 0.073662 0.029108
v -0.061105 0.073662 0.029108
v -0.061105 0.060525 0.029479
v -0.061808 0.005071 0.047620
v 0.064683 0.005071 0.120649
v 0.064254 0.060537 0.121397
v -0.062241 0.060537 0.048365
v 0.064440 0.073714 0.121075
v -0.062056 0.073714 0.048043
v -0.058732 0.005167 0.042292
v 0.067759 0.005167 0.115322
v 0.067330 0.060498 0.116068
v -0.059165 0.060498 0.043036
v 0.067515 0.073540 0.115748
v -0.058980 0.073540 0.042716
v -0.054140 0.054748 0.045834
v 0.062395 0.054748 0.113116
v 0.062735 0.010916 0.112524
v -0.053797 0.010916 0.045244
v -0.054142 0.052786 0.049658
v 0.059084 0.052786 0.115029
v 0.059394 0.012774 0.114489
v -0.053829 0.012774 0.049119
vt 0.272421 0.625000
vt 0.250000 0.625000
vt 0.250000 0.606501
vt 0.272421 0.606501
vt 0.272421 0.578471
vt 0.250000 0.578471
vt 0.250000 0.556880
vt 0.272421 0.556880
vt 0.250000 0.625000
vt 0.272421 0.625000
vt 0.250000 0.606501
vt 0.306213 0.606501
vt 0.306213 0.625000
vt 0.254635 0.625000
vt 0.250000 0.622394
vt 0.306213 0.625000
vt 0.306213 0.606501
vt 0.250000 0.606501
vt 0.250000 0.622394
vt 0.254635 0.625000
vt 0.272421 0.535289
vt 0.250000 0.535289
vt 0.250000 0.502912
vt 0.272421 0.502912
vt 0.368226 0.625000
vt 0.375000 0.625000
vt 0.375000 0.625000
vt 0.368226 0.625000
vt 0.272421 0.596971
vt 0.250000 0.596971
vt 0.254639 0.578471
vt 0.306213 0.578471
vt 0.306213 0.596971
vt 0.250000 0.596971
vt 0.250000 0.581077
vt 0.306213 0.578471
vt 0.254639 0.578471
vt 0.250000 0.581077
vt 0.250000 0.596971
vt 0.306213 0.596971
vt 0.272421 0.546085
vt 0.368226 0.625000
vt 0.375000 0.625000
vt 0.250000 0.625000
vt 0.250000 0.606501
vt 0.250000 0.578471
vt 0.250000 0.556880
vt 0.250000 0.625000
vt 0.250000 0.625000
vt 0.250000 0.625000
vt 0.306213 0.578471
vt 0.306213 0.596971
vt 0.250000 0.596971
vt 0.306213 0.606501
vt 0.306213 0.625000
vt 0.250000 0.535289
vt 0.375000 0.578471
vt 0.375000 0.596971
vt 0.375000 0.596971
vt 0.375000 0.578471
vt 0.375000 0.625000
vt 0.375000 0.625000
vt 0.375000 0.625000
vt 0.375000 0.535289
vt 0.375000 0.556880
vt 0.375000 0.556880
vt 0.375000 0.535289
vt 0.306213 0.625000
vt 0.306213 0.606501
vt 0.375000 0.606501
vt 0.375000 0.606501
vt 0.306213 0.596971
vt 0.306213 0.578471
vt 0.375000 0.625000
vt 0.375000 0.578471
vt 0.375000 0.596971
vt 0.375000 0.625000
vt 0.375000 0.625000
vt 0.375000 0.535289
vt 0.375000 0.556880
vt 0.306213 0.625000
vt 0.306213 0.606501
vt 0.375000 0.606501
vt 0.306213 0.596971
vt 0.306213 0.578471
vt 0.375000 0.625000
vt 0.375000 0.578471
vt 0.375000 0.596971
vt 0.375000 0.625000
vt 0.375000 0.625000
vt 0.375000 0.535289
vt 0.375000 0.556880
vt 0.306213 0.625000
vt 0.306213 0.606501
vt 0.375000 0.606501
vt 0.306213 0.596971
vt 0.306213 0.578471
vt 0.375000 0.625000
vt 0.375000 0.578471
vt 0.375000 0.596971
vt 0.375000 0.625000
vt 0.375000 0.625000
vt 0.375000 0.535289
vt 0.375000 0.556880
vt 0.306213 0.625000
vt 0.306213 0.606501
vt 0.375000 0.606501
vt 0.306213 0.596971
vt 0.306213 0.578471
vt 0.375000 0.625000
vt 0.375000 0.578471
vt 0.375000 0.596971
vt 0.375000 0.625000
vt 0.375000 0.625000
vt 0.375000 0.535289
vt 0.375000 0.556880
vt 0.306213 0.625000
vt 0.306213 0.606501
vt 0.375000 0.606501
vt 0.306213 0.596971
vt 0.306213 0.578471
vt 0.375000 0.625000
vt 0.375000 0.578471
vt 0.375000 0.596971
vt 0.375000 0.625000
vt 0.375000 0.625000
vt 0.375000 0.535289
vt 0.375000 0.556880
vt 0.306213 0.625000
vt 0.306213 0.606501
vt 0.375000 0.606501
vt 0.306213 0.596971
vt 0.306213 0.578471
vt 0.375000 0.625000
vt 0.250000 0.625000
vt 0.250000 0.606501
vt 0.250000 0.606501
vt 0.250000 0.625000
vt 0.250000 0.578471
vt 0.250000 0.556880
vt 0.250000 0.556880
vt 0.250000 0.578471
vt 0.250000 0.625000
vt 0.250000 0.625000
vt 0.250000 0.625000
vt 0.250000 0.625000
vt 0.306213 0.578471
vt 0.306213 0.596971
vt 0.306213 0.596971
vt 0.306213 0.578471
vt 0.250000 0.596971
vt 0.250000 0.596971
vt 0.306213 0.606501
vt 0.306213 0.625000
vt 0.306213 0.625000
vt 0.306213 0.606501
vt 0.250000 0.535289
vt 0.250000 0.535289
vt 0.250000 0.625000
vt 0.250000 0.606501
vt 0.250000 0.596971
vt 0.250000 0.578471
vt 0.250000 0.556880
vt 0.250000 0.535289
vt 0.306213 0.578471
vt 0.306213 0.596971
vt 0.306213 0.606501
vt 0.306213 0.625000
vt 0.250000 0.625000
vt 0.250000 0.625000
vt 0.250000 0.525751
vt 0.250000 0.513659
vt 0.250000 0.596971
vt 0.250000 0.606501
vt 0.269263 0.622394
vt 0.250832 0.516465
vt 0.368477 0.625000
vt 0.357393 0.622394
vt 0.351573 0.622394
vt 0.368226 0.606501
vt 0.368226 0.625000
vt 0.368226 0.556880
vt 0.368226 0.578471
vt 0.272421 0.535289
vt 0.272421 0.502912
vt 0.368226 0.502912
vt 0.368226 0.535289
vt 0.272421 0.625000
vt 0.272421 0.625000
vt 0.250000 0.625000
vt 0.368226 0.596971
vt 0.272421 0.546085
vt 0.368226 0.546085
vt 0.250000 0.596971
vt 0.250000 0.577424
vt 0.250000 0.606501
vt 0.254387 0.574377
vt 0.276224 0.625000
vt 0.368226 0.535289
vt 0.368226 0.502912
vt 0.375000 0.502912
vt 0.368226 0.546085
vt 0.368226 0.502912
vt 0.368226 0.535289
vt 0.272421 0.535289
vt 0.272421 0.502912
vt 0.368226 0.546085
vt 0.272421 0.546085
vt 0.272421 0.535289
vt 0.368226 0.535289
vt 0.368226 0.502912
vt 0.272421 0.502912
vt 0.272421 0.546085
vt 0.368226 0.546085
vt 0.368226 0.535289
vt 0.272421 0.535289
vt 0.368226 0.502912
vt 0.272421 0.502912
vt 0.368226 0.535289
vt 0.272421 0.535289
vt 0.368226 0.502912
vt 0.272421 0.502912
vn 0.0000 0.5884 -0.8086
vn 0.0000 0.9513 -0.3083
vn -0.0000 0.5872 0.8094
vn -0.0000 0.1700 0.9854
vn 0.0000 0.1682 -0.9858
vn -1.0000 -0.0001 -0.0000
vn -1.0000 -0.0003 -0.0001
vn -1.0000 -0.0001 -0.0002
vn 1.0000 -0.0000 -0.0000
vn 1.0000 -0.0001 -0.0000
vn -0.0000 0.0063 1.0000
vn 0.0000 -0.0155 0.9999
vn 0.0000 0.0049 -1.0000
vn 0.0000 -0.0133 -0.9999
vn 0.0000 0.9508 0.3097
vn -1.0000 -0.0001 0.0002
vn -1.0000 -0.0003 0.0001
vn -1.0000 -0.0000 -0.0000
vn -0.0000 0.0282 0.9996
vn -1.0000 0.0004 -0.0006
vn -1.0000 0.0007 -0.0002
vn -1.0000 0.0004 0.0006
vn -1.0000 0.0001 0.0007
vn -1.0000 -0.0002 -0.0002
vn -1.0000 -0.0000 -0.0007
vn -1.0000 0.0000 -0.0006
vn -1.0000 -0.0002 0.0002
vn -1.0000 -0.0007 0.0002
vn -1.0000 0.0007 0.0002
vn -1.0000 -0.0007 -0.0001
vn 0.0000 0.5962 0.8029
vn 0.0000 0.9542 0.2991
vn 0.0000 0.5793 -0.8151
vn 0.0000 -0.0104 -0.9999
vn 0.0000 -0.5793 0.8151
vn 0.0000 0.0104 0.9999
vn 0.0000 -0.5961 -0.8029
vn 0.0000 -0.9542 -0.2991
vn 0.0000 0.9478 -0.3189
vn 0.0000 -0.9478 0.3189
vn -0.8788 0.2845 0.3832
vn -0.8788 0.4554 0.1428
vn -0.8788 0.2765 -0.3890
vn -0.8788 -0.0050 -0.4772
vn -0.8788 -0.2765 0.3890
vn -0.8788 0.0050 0.4772
vn -0.8788 -0.2845 -0.3832
vn -0.8788 -0.4554 -0.1428
vn -0.8788 0.4523 -0.1522
vn -0.8788 -0.4523 0.1522
vn 0.9151 0.2403 0.3237
vn 0.9152 0.3847 0.1206
vn 0.7615 0.6185 0.1939
vn 0.7615 0.3864 0.5204
vn 0.9151 0.2335 -0.3286
vn 0.9152 -0.0042 -0.4031
vn 0.7615 -0.0067 -0.6482
vn 0.7615 0.3755 -0.5283
vn 0.9151 -0.2335 0.3286
vn 0.9151 0.0042 0.4031
vn 0.7615 0.0067 0.6482
vn 0.7615 -0.3755 0.5283
vn 0.9151 -0.2403 -0.3237
vn 0.9152 -0.3847 -0.1206
vn 0.7615 -0.6185 -0.1939
vn 0.7615 -0.3864 -0.5204
vn 0.9152 0.3821 -0.1285
vn 0.7615 0.6144 -0.2067
vn 0.9152 -0.3821 0.1286
vn 0.7615 -0.6144 0.2067
vn 0.0000 -0.5962 -0.8029
vn -0.3008 0.5531 -0.7769
vn -0.3008 0.9041 -0.3034
vn -0.3008 -0.0091 -0.9536
vn -0.3008 -0.5679 -0.7662
vn -0.3008 -0.9098 -0.2860
vn -0.3008 -0.9041 0.3034
vn -0.3008 -0.5531 0.7769
vn -0.3008 0.0091 0.9536
vn -0.3008 0.5679 0.7661
vn -0.3008 0.9098 0.2860
vn -0.4460 -0.8486 0.2847
vn -0.4460 -0.5191 0.7291
vn -0.4460 -0.8539 -0.2684
vn -0.4459 -0.5330 -0.7191
vn -0.4460 -0.0086 -0.8950
vn -0.4460 0.5191 -0.7291
vn -0.4460 0.8486 -0.2847
vn -0.4460 0.8538 0.2684
vn -0.4460 0.8539 0.2684
vn -0.4459 0.5330 0.7191
vn -0.4459 0.0086 0.8950
vn -0.4460 0.0086 0.8950
vn 0.0000 -1.0000 -0.0000
vn 0.0000 -0.7126 0.7016
vn 0.0000 -0.7118 -0.7024
vn 0.0000 1.0000 0.0072
vn 0.0000 -1.0000 -0.0072
vn -0.4999 -0.0155 0.8659
vn -0.5000 0.0063 0.8660
vn -0.4998 0.0282 0.8657
vn 0.4999 0.0156 -0.8659
vn 0.4998 -0.0283 -0.8657
vn 0.5000 -0.0064 -0.8660
vn 0.8660 -0.0000 0.5000
vn -0.8660 -0.0000 -0.5000
vn 0.0078 -0.9999 -0.0135
vn 0.0141 0.9996 -0.0244
vn 0.4999 0.0155 -0.8659
vn 0.5000 0.0155 -0.8659
vn 0.2548 -0.8604 -0.4413
vn -0.5037 0.0078 -0.8638
vn -0.5039 0.0078 -0.8637
vn -0.5039 0.0078 -0.8638
vn 0.2413 0.8758 -0.4180
vn 0.2413 0.8758 -0.4179
vn 1.0000 0.0078 0.0046
vn 1.0000 0.0078 0.0045
s 1
f 137/1/1 5/2/1 19/3/2
f 19/3/2 136/4/2 137/1/1
f 134/5/3 1/6/3 25/7/4
f 25/7/4 133/8/4 134/5/3
f 28/9/5 5/2/1 137/1/1
f 137/1/1 138/10/5 28/9/5
f 21/11/6 23/12/7 12/13/8
f 12/13/8 130/14/6 3/15/6
f 21/11/6 12/13/8 3/15/6
f 11/16/9 24/17/9 16/18/10
f 16/18/10 129/19/9 2/20/9
f 11/16/9 16/18/10 2/20/9
f 146/21/11 9/22/11 4/23/12
f 4/23/12 145/24/12 146/21/11
f 154/25/13 11/26/13 2/27/14
f 2/27/14 155/28/14 154/25/13
f 135/29/15 13/30/15 1/6/3
f 1/6/3 134/5/3 135/29/15
f 4/31/6 9/32/16 17/33/17
f 4/31/6 17/33/17 15/34/6
f 4/31/6 15/34/6 131/35/18
f 10/36/9 132/37/9 6/38/9
f 10/36/9 6/38/9 22/39/10
f 10/36/9 22/39/10 18/40/9
f 136/4/2 19/3/2 13/30/15
f 13/30/15 135/29/15 136/4/2
f 17/33/17 23/12/7 21/11/6
f 21/11/6 15/34/6 17/33/17
f 22/39/10 16/18/10 24/17/9
f 24/17/9 18/40/9 22/39/10
f 9/22/11 146/21/11 161/41/19
f 9/22/11 161/41/19 133/8/4
f 9/22/11 133/8/4 25/7/4
f 153/42/5 26/43/5 11/26/13
f 11/26/13 154/25/13 153/42/5
f 30/44/20 35/45/21 19/3/21
f 19/3/21 5/2/20 30/44/20
f 29/46/22 37/47/23 25/7/23
f 25/7/23 1/6/22 29/46/22
f 32/48/24 38/49/25 28/9/26
f 28/9/26 12/50/8 32/48/24
f 31/51/27 34/52/28 17/33/17
f 17/33/17 9/32/16 31/51/27
f 33/53/29 29/46/22 1/6/22
f 1/6/22 13/30/29 33/53/29
f 36/54/30 32/55/24 12/13/8
f 12/13/8 23/12/7 36/54/30
f 35/45/21 33/53/29 13/30/29
f 13/30/29 19/3/21 35/45/21
f 34/52/28 36/54/30 23/12/7
f 23/12/7 17/33/17 34/52/28
f 37/47/23 31/56/27 9/22/16
f 9/22/16 25/7/23 37/47/23
f 38/49/25 30/44/20 5/2/20
f 5/2/20 28/9/26 38/49/25
f 39/57/9 43/58/9 14/59/9
f 14/59/9 7/60/9 39/57/9
f 40/61/9 47/62/9 26/43/9
f 26/43/9 8/63/9 40/61/9
f 41/64/9 48/65/9 27/66/9
f 27/66/9 10/67/9 41/64/9
f 42/68/9 46/69/9 24/17/9
f 24/17/9 11/16/9 42/68/9
f 45/70/9 40/61/9 8/63/9
f 8/63/9 20/71/9 45/70/9
f 44/72/9 41/73/9 10/36/9
f 10/36/9 18/40/9 44/72/9
f 43/58/9 45/70/9 20/71/9
f 20/71/9 14/59/9 43/58/9
f 46/69/9 44/72/9 18/40/9
f 18/40/9 24/17/9 46/69/9
f 47/62/9 42/74/9 11/26/9
f 11/26/9 26/43/9 47/62/9
f 48/65/9 39/57/9 7/60/9
f 7/60/9 27/66/9 48/65/9
f 49/75/31 53/76/32 43/58/32
f 43/58/32 39/57/31 49/75/31
f 50/77/33 57/78/34 47/62/34
f 47/62/34 40/61/33 50/77/33
f 51/79/35 58/80/36 48/65/36
f 48/65/36 41/64/35 51/79/35
f 52/81/37 56/82/38 46/69/38
f 46/69/38 42/68/37 52/81/37
f 55/83/39 50/77/33 40/61/33
f 40/61/33 45/70/39 55/83/39
f 54/84/40 51/85/35 41/73/35
f 41/73/35 44/72/40 54/84/40
f 53/76/32 55/83/39 45/70/39
f 45/70/39 43/58/32 53/76/32
f 56/82/38 54/84/40 44/72/40
f 44/72/40 46/69/38 56/82/38
f 57/78/34 52/86/37 42/74/37
f 42/74/37 47/62/34 57/78/34
f 58/80/36 49/75/31 39/57/31
f 39/57/31 48/65/36 58/80/36
f 59/87/41 63/88/42 53/76/42
f 53/76/42 49/75/41 59/87/41
f 60/89/43 67/90/44 57/78/44
f 57/78/44 50/77/43 60/89/43
f 61/91/45 68/92/46 58/80/46
f 58/80/46 51/79/45 61/91/45
f 62/93/47 66/94/48 56/82/48
f 56/82/48 52/81/47 62/93/47
f 65/95/49 60/89/43 50/77/43
f 50/77/43 55/83/49 65/95/49
f 64/96/50 61/97/45 51/85/45
f 51/85/45 54/84/50 64/96/50
f 63/88/42 65/95/49 55/83/49
f 55/83/49 53/76/42 63/88/42
f 66/94/48 64/96/50 54/84/50
f 54/84/50 56/82/48 66/94/48
f 67/90/44 62/98/47 52/86/47
f 52/86/47 57/78/44 67/90/44
f 68/92/46 59/87/41 49/75/41
f 49/75/41 58/80/46 68/92/46
f 69/99/51 73/100/52 63/88/53
f 63/88/53 59/87/54 69/99/51
f 70/101/55 77/102/56 67/90/57
f 67/90/57 60/89/58 70/101/55
f 71/103/59 78/104/60 68/92/61
f 68/92/61 61/91/62 71/103/59
f 72/105/63 76/106/64 66/94/65
f 66/94/65 62/93/66 72/105/63
f 75/107/67 70/101/55 60/89/58
f 60/89/58 65/95/68 75/107/67
f 74/108/69 71/109/59 61/97/62
f 61/97/62 64/96/70 74/108/69
f 73/100/52 75/107/67 65/95/68
f 65/95/68 63/88/53 73/100/52
f 76/106/64 74/108/69 64/96/70
f 64/96/70 66/94/65 76/106/64
f 77/102/56 72/110/63 62/98/66
f 62/98/66 67/90/57 77/102/56
f 78/104/60 69/99/51 59/87/54
f 59/87/54 68/92/61 78/104/60
f 79/111/9 83/112/9 73/100/52
f 73/100/52 69/99/51 79/111/9
f 80/113/9 87/114/9 77/102/56
f 77/102/56 70/101/55 80/113/9
f 81/115/9 88/116/9 78/104/60
f 78/104/60 71/103/59 81/115/9
f 82/117/9 86/118/9 76/106/64
f 76/106/64 72/105/63 82/117/9
f 85/119/9 80/113/9 70/101/55
f 70/101/55 75/107/67 85/119/9
f 84/120/9 81/121/9 71/109/59
f 71/109/59 74/108/69 84/120/9
f 83/112/9 85/119/9 75/107/67
f 75/107/67 73/100/52 83/112/9
f 86/118/9 84/120/9 74/108/69
f 74/108/69 76/106/64 86/118/9
f 87/114/9 82/122/9 72/110/63
f 72/110/63 77/102/56 87/114/9
f 88/116/9 79/111/9 69/99/51
f 69/99/51 78/104/60 88/116/9
f 89/123/71 93/124/38 83/112/38
f 83/112/38 79/111/37 89/123/71
f 90/125/35 97/126/36 87/114/36
f 87/114/36 80/113/35 90/125/35
f 91/127/33 98/128/34 88/116/34
f 88/116/34 81/115/33 91/127/33
f 92/129/31 96/130/32 86/118/32
f 86/118/32 82/117/31 92/129/31
f 95/131/40 90/125/35 80/113/35
f 80/113/35 85/119/40 95/131/40
f 94/132/39 91/133/33 81/121/33
f 81/121/33 84/120/39 94/132/39
f 93/124/38 95/131/40 85/119/40
f 85/119/40 83/112/38 93/124/38
f 96/130/32 94/132/39 84/120/39
f 84/120/39 86/118/32 96/130/32
f 97/126/36 92/134/31 82/122/31
f 82/122/31 87/114/36 97/126/36
f 98/128/34 89/123/71 79/111/37
f 79/111/37 88/116/34 98/128/34
f 119/135/18 120/136/18 109/137/18
f 109/137/18 110/138/18 119/135/18
f 122/139/18 123/140/18 116/141/18
f 116/141/18 117/142/18 122/139/18
f 127/143/18 128/144/18 111/145/18
f 111/145/18 112/146/18 127/143/18
f 124/147/18 125/148/18 114/149/18
f 114/149/18 115/150/18 124/147/18
f 121/151/18 122/139/18 117/142/18
f 117/142/18 118/152/18 121/151/18
f 126/153/18 127/154/18 112/155/18
f 112/155/18 113/156/18 126/153/18
f 120/136/18 121/151/18 118/152/18
f 118/152/18 109/137/18 120/136/18
f 125/148/18 126/153/18 113/156/18
f 113/156/18 114/149/18 125/148/18
f 123/140/18 124/157/18 115/158/18
f 115/158/18 116/141/18 123/140/18
f 128/144/18 119/135/18 110/138/18
f 110/138/18 111/145/18 128/144/18
f 110/138/72 109/137/73 35/45/73
f 35/45/73 30/44/72 110/138/72
f 111/145/74 110/138/72 30/44/72
f 30/44/72 38/49/74 111/145/74
f 112/146/75 111/145/74 38/49/74
f 38/49/74 32/48/75 112/146/75
f 113/156/76 112/155/75 32/55/75
f 32/55/75 36/54/76 113/156/76
f 114/149/77 113/156/76 36/54/76
f 36/54/76 34/52/77 114/149/77
f 115/150/78 114/149/77 34/52/77
f 34/52/77 31/51/78 115/150/78
f 116/141/79 115/158/78 31/56/78
f 31/56/78 37/47/79 116/141/79
f 117/142/80 116/141/79 37/47/79
f 37/47/79 29/46/80 117/142/80
f 118/152/81 117/142/80 29/46/80
f 29/46/80 33/53/81 118/152/81
f 109/137/73 118/152/81 33/53/81
f 33/53/81 35/45/73 109/137/73
f 120/136/82 119/135/83 100/159/83
f 100/159/83 105/160/82 120/136/82
f 121/151/84 120/136/82 105/160/82
f 105/160/82 103/161/84 121/151/84
f 122/139/85 121/151/84 103/161/84
f 103/161/84 99/162/85 122/139/85
f 123/140/86 122/139/85 99/162/85
f 99/162/85 107/163/86 123/140/86
f 124/157/87 123/140/86 107/163/86
f 107/163/86 101/164/87 124/157/87
f 125/148/88 124/147/87 101/165/87
f 101/165/87 104/166/88 125/148/88
f 126/153/89 125/148/88 104/166/88
f 104/166/88 106/167/90 126/153/89
f 127/154/91 126/153/89 106/167/90
f 106/167/90 102/168/91 127/154/91
f 128/144/92 127/143/91 102/169/91
f 102/169/91 108/170/93 128/144/92
f 119/135/83 128/144/92 108/170/93
f 108/170/93 100/159/83 119/135/83
f 99/162/18 103/161/18 105/160/18
f 105/160/18 100/159/18 108/170/18
f 108/170/18 102/169/18 106/167/18
f 105/160/18 108/170/18 106/167/18
f 106/167/18 104/166/18 101/165/18
f 105/160/18 106/167/18 101/165/18
f 99/162/18 105/160/18 101/165/18
f 99/162/18 101/165/18 107/163/18
f 144/171/94 131/172/94 15/34/94
f 15/34/94 143/173/94 144/171/94
f 143/173/94 15/34/94 21/11/94
f 21/11/94 142/174/94 143/173/94
f 142/174/94 21/11/94 3/15/94
f 3/15/94 141/175/94 142/174/94
f 145/176/95 4/23/95 131/172/95
f 131/172/95 144/171/95 145/176/95
f 155/177/96 2/27/96 129/178/96
f 129/178/96 156/179/96 155/177/96
f 137/1/1 136/4/2 151/180/2
f 151/180/2 152/181/1 137/1/1
f 134/5/3 133/8/4 148/182/4
f 148/182/4 149/183/3 134/5/3
f 138/10/5 137/1/1 152/181/1
f 152/181/1 153/42/5 138/10/5
f 168/184/11 163/185/12 164/186/12
f 164/186/12 165/187/11 168/184/11
f 139/188/13 140/189/14 130/190/14
f 130/190/14 12/50/13 139/188/13
f 135/29/15 134/5/3 149/183/3
f 149/183/3 150/191/15 135/29/15
f 136/4/2 135/29/15 150/191/15
f 150/191/15 151/180/2 136/4/2
f 167/192/19 168/184/11 165/187/11
f 165/187/11 166/193/19 167/192/19
f 138/10/5 139/188/13 12/50/13
f 12/50/13 28/9/5 138/10/5
f 144/171/94 143/173/94 158/194/94
f 158/194/94 159/195/94 144/171/94
f 143/173/94 142/174/94 157/196/94
f 157/196/94 158/194/94 143/173/94
f 142/174/94 141/175/94 156/179/94
f 156/179/94 157/196/94 142/174/94
f 145/176/95 144/171/95 159/195/95
f 159/195/95 160/197/95 145/176/95
f 140/198/96 141/175/96 3/15/96
f 3/15/96 130/14/96 140/198/96
f 154/25/13 155/28/14 140/189/14
f 140/189/14 139/188/13 154/25/13
f 153/42/5 154/25/13 139/188/13
f 139/188/13 138/10/5 153/42/5
f 155/177/96 156/179/96 141/175/96
f 141/175/96 140/198/96 155/177/96
f 152/181/1 151/180/2 20/71/2
f 20/71/2 8/63/1 152/181/1
f 149/183/3 148/182/4 27/66/4
f 27/66/4 7/60/3 149/183/3
f 153/42/5 152/181/1 8/63/1
f 8/63/1 26/43/5 153/42/5
f 147/199/11 160/200/12 132/201/12
f 132/201/12 10/67/11 147/199/11
f 150/191/15 149/183/3 7/60/3
f 7/60/3 14/59/15 150/191/15
f 151/180/2 150/191/15 14/59/15
f 14/59/15 20/71/2 151/180/2
f 10/67/11 27/66/4 148/182/4
f 10/67/11 148/182/4 162/202/19
f 10/67/11 162/202/19 147/199/11
f 159/195/94 158/194/94 22/39/94
f 22/39/94 6/38/94 159/195/94
f 158/194/94 157/196/94 16/18/94
f 16/18/94 22/39/94 158/194/94
f 157/196/94 156/179/94 129/178/94
f 129/178/94 16/18/94 157/196/94
f 160/197/95 159/195/95 6/38/95
f 6/38/95 132/37/95 160/197/95
f 161/41/19 162/202/19 148/182/4
f 148/182/4 133/8/4 161/41/19
f 164/186/97 163/185/97 145/24/97
f 145/24/97 160/200/97 164/186/97
f 165/187/18 164/186/18 160/200/18
f 160/200/18 147/199/18 165/187/18
f 166/193/18 165/187/18 147/199/18
f 147/199/18 162/202/18 166/193/18
f 167/192/98 166/193/98 162/202/98
f 162/202/98 161/41/98 167/192/98
f 168/184/9 167/192/9 161/41/9
f 161/41/9 146/21/9 168/184/9
f 163/185/9 168/184/9 146/21/9
f 146/21/9 145/24/9 163/185/9
f 90/125/9 95/131/9 93/124/9
f 93/124/9 89/123/9 98/128/9
f 98/128/9 91/127/9 94/132/9
f 93/124/9 98/128/9 94/132/9
f 94/132/9 96/130/9 92/129/9
f 93/124/9 94/132/9 92/129/9
f 90/125/9 93/124/9 92/129/9
f 90/125/9 92/129/9 97/126/9
f 170/203/99 171/204/100 172/205/100
f 172/205/100 169/206/99 170/203/99
f 171/204/100 173/207/101 174/208/101
f 174/208/101 172/205/100 171/204/100
f 185/209/102 186/210/102 187/211/102
f 187/211/102 188/212/102 185/209/102
f 180/213/103 179/214/103 177/215/104
f 177/215/104 178/216/104 180/213/103
f 171/204/105 170/203/105 176/217/105
f 176/217/105 177/215/105 171/204/105
f 169/206/106 172/205/106 178/216/106
f 178/216/106 175/218/106 169/206/106
f 170/203/107 169/206/107 175/218/107
f 175/218/107 176/217/107 170/203/107
f 173/207/105 171/204/105 177/215/105
f 177/215/105 179/214/105 173/207/105
f 174/208/108 173/207/108 179/214/108
f 179/214/108 180/213/108 174/208/108
f 172/205/106 174/208/106 180/213/106
f 180/213/106 178/216/106 172/205/106
f 182/219/109 181/220/109 178/216/104
f 178/216/104 177/215/104 182/219/109
f 183/221/110 182/219/109 177/215/104
f 177/215/104 176/217/110 183/221/110
f 184/222/102 183/221/110 176/217/110
f 176/217/110 175/218/102 184/222/102
f 181/220/109 184/222/102 175/218/102
f 175/218/102 178/216/104 181/220/109
f 186/210/111 185/209/111 181/220/111
f 181/220/111 182/219/111 186/210/111
f 187/211/112 186/210/113 182/219/114
f 182/219/114 183/221/112 187/211/112
f 188/212/115 187/211/116 183/221/116
f 183/221/116 184/222/115 188/212/115
f 185/209/117 188/212/118 184/222/118
f 184/222/118 181/220/117 185/209/117
